# xmcd CD database file
#
# Track frame offsets:
#	182
#	12215
#	25190
#	38615
#	51490
#	65915
#	78615
#	96990
#	110715
#	128940
#	146765
#	158715
#	172390
#	183540
#	196365
#	206340
#	237115
#	269602
#
# Disc length: 3903 seconds
#
# Revision: 0
# Processed by: cddbd v1.4PL0 Copyright (c) Steve Scherf et al.
# Submitted via: CDex 1.50beta10
#
DISCID=110f3d12
DTITLE=Various Artist - The Blues Anthology (2 of 3)
DYEAR=1993
DGENRE=Blues
TTITLE0=Big Bill Broonzy - Trucking Little Woman
TTITLE1=Big Bill Broonzy - Bull Cow Blues
TTITLE2=Big Bill Broonzy - Medicine Man Blues
TTITLE3=Willie Dixon - Home In Indiana
TTITLE4=Willie Dixon - Alone
TTITLE5=Willie Dixon - Firey Love
TTITLE6=Otis Rush - May Be The Last Time
TTITLE7=Otis Rush - I Feel Good
TTITLE8=Otis Rush - Otis Blues
TTITLE9=Jimmy Witherspoon - Gee Baby Ain't I Good For You
TTITLE10=Jimmy Witherspoon - I Make A Lot Of Money
TTITLE11=Jimmy Witherspoon - Blowin' The Blues
TTITLE12=Memphis Slim - Ballin' The Jack
TTITLE13=Memphis Slim - I Am The Blues
TTITLE14=Memphis Slim - Caledonia
TTITLE15=Freddie King - Big Leg Woman
TTITLE16=Freddie King - The Moon Is Rising
TTITLE17=Freddie King - Feelin' Alright
EXTD=YEAR: 1993
EXTT0=
EXTT1=
EXTT2=
EXTT3=
EXTT4=
EXTT5=
EXTT6=
EXTT7=
EXTT8=
EXTT9=
EXTT10=
EXTT11=
EXTT12=
EXTT13=
EXTT14=
EXTT15=
EXTT16=
EXTT17=
PLAYORDER=
